<?xml version="1.0" encoding="UTF-8" standalone="no"?>
<!DOCTYPE svg PUBLIC "-//W3C//DTD SVG 1.1//EN" "http://www.w3.org/Graphics/SVG/1.1/DTD/svg11.dtd">
<svg width="100%" height="100%" viewBox="0 0 100 14" version="1.1" xmlns="http://www.w3.org/2000/svg" xmlns:xlink="http://www.w3.org/1999/xlink" xml:space="preserve" xmlns:serif="http://www.serif.com/" style="fill-rule:evenodd;clip-rule:evenodd;stroke-linejoin:round;stroke-miterlimit:2;">
    <g transform="matrix(1,0,0,1,-910,-123.687)">
        <g transform="matrix(0.909091,0,0,0.909091,866.565,-197.091)">
            <g id="zoku-sumi" serif:id="zoku sumi" transform="matrix(1.18991,0,0,1.18991,47.7781,352.857)">
                <g>
                    <g transform="matrix(1,0,0,1,3.3169,2.4596)">
                        <path d="M0,7.471C-0.026,7.522 -0.039,7.561 -0.039,7.585C-0.039,7.688 0.031,7.739 0.171,7.739L4.04,7.739C4.167,7.739 4.231,7.802 4.231,7.929L4.231,9.549C4.231,9.676 4.167,9.74 4.04,9.74L-3.107,9.74C-3.247,9.74 -3.317,9.689 -3.317,9.588C-3.317,9.562 -3.304,9.524 -3.279,9.473L0.972,-0.001C0.997,-0.051 1.01,-0.09 1.01,-0.115C1.01,-0.216 0.94,-0.267 0.8,-0.267L-2.669,-0.267C-2.796,-0.267 -2.859,-0.331 -2.859,-0.458L-2.859,-2.078C-2.859,-2.205 -2.796,-2.269 -2.669,-2.269L4.098,-2.269C4.237,-2.269 4.308,-2.217 4.308,-2.116C4.308,-2.091 4.295,-2.052 4.27,-2.002L0,7.471Z" style="fill:white;fill-rule:nonzero;"/>
                    </g>
                    <g transform="matrix(1,0,0,1,17.1543,9.016)">
                        <path d="M0,-5.642C0,-6.036 -0.131,-6.363 -0.393,-6.623C-0.655,-6.884 -0.977,-7.014 -1.36,-7.014L-2.299,-7.014C-2.682,-7.014 -3.008,-6.881 -3.276,-6.614C-3.544,-6.347 -3.679,-6.023 -3.679,-5.642L-3.679,0C-3.679,0.381 -3.544,0.706 -3.276,0.972C-3.008,1.239 -2.682,1.373 -2.299,1.373L-1.36,1.373C-0.977,1.373 -0.655,1.242 -0.393,0.982C-0.131,0.721 0,0.394 0,0L0,-5.642ZM1.916,1.382C1.744,1.795 1.506,2.151 1.201,2.45C0.896,2.748 0.524,2.977 0.086,3.135C-0.353,3.295 -0.838,3.374 -1.372,3.374L-2.306,3.374C-2.84,3.374 -3.326,3.295 -3.764,3.135C-4.203,2.977 -4.578,2.748 -4.889,2.45C-5.2,2.151 -5.438,1.795 -5.604,1.382C-5.769,0.969 -5.852,0.508 -5.852,0L-5.852,-5.642C-5.852,-6.15 -5.766,-6.611 -5.594,-7.024C-5.422,-7.437 -5.185,-7.789 -4.879,-8.081C-4.574,-8.374 -4.203,-8.603 -3.764,-8.768C-3.326,-8.933 -2.84,-9.016 -2.306,-9.016L-1.372,-9.016C-0.838,-9.016 -0.353,-8.933 0.086,-8.768C0.524,-8.603 0.896,-8.374 1.201,-8.081C1.506,-7.789 1.744,-7.437 1.916,-7.024C2.087,-6.611 2.173,-6.15 2.173,-5.642L2.173,0C2.173,0.508 2.087,0.969 1.916,1.382" style="fill:white;fill-rule:nonzero;"/>
                    </g>
                    <g transform="matrix(1,0,0,1,32.4412,0.3418)">
                        <path d="M0,11.706C0,11.807 -0.07,11.857 -0.21,11.857L-2.445,11.857L-2.598,11.762L-5.6,6.977C-5.664,6.901 -5.715,6.863 -5.753,6.863C-5.83,6.863 -5.887,6.889 -5.926,6.939L-6.69,7.95L-6.69,11.667C-6.69,11.794 -6.753,11.857 -6.879,11.857L-8.675,11.857C-8.801,11.857 -8.863,11.794 -8.863,11.667L-8.863,0.04C-8.863,-0.087 -8.801,-0.151 -8.675,-0.151L-6.879,-0.151C-6.753,-0.151 -6.69,-0.087 -6.69,0.04L-6.69,4.271C-6.69,4.424 -6.633,4.5 -6.517,4.5C-6.466,4.5 -6.408,4.462 -6.344,4.386L-2.918,-0.075L-2.764,-0.151L-0.591,-0.151C-0.451,-0.151 -0.381,-0.1 -0.381,0.002C-0.381,0.053 -0.4,0.103 -0.438,0.154L-4.147,4.728C-4.173,4.779 -4.185,4.811 -4.185,4.824C-4.185,4.85 -4.173,4.888 -4.147,4.938L-0.038,11.571C-0.012,11.622 0,11.667 0,11.706" style="fill:white;fill-rule:nonzero;"/>
                    </g>
                    <g transform="matrix(1,0,0,1,43.3726,2.1814)">
                        <path d="M0,8.217C-0.171,8.63 -0.41,8.986 -0.715,9.284C-1.02,9.582 -1.392,9.812 -1.83,9.97C-2.268,10.129 -2.754,10.208 -3.288,10.208L-4.222,10.208C-4.755,10.208 -5.242,10.129 -5.68,9.97C-6.119,9.812 -6.494,9.582 -6.805,9.284C-7.116,8.986 -7.354,8.63 -7.52,8.217C-7.685,7.804 -7.767,7.343 -7.767,6.834L-7.767,-1.8C-7.767,-1.927 -7.704,-1.991 -7.577,-1.991L-5.785,-1.991C-5.658,-1.991 -5.594,-1.927 -5.594,-1.8L-5.594,6.834C-5.594,7.216 -5.46,7.54 -5.192,7.807C-4.924,8.073 -4.598,8.207 -4.215,8.207L-3.276,8.207C-2.893,8.207 -2.57,8.076 -2.309,7.817C-2.046,7.556 -1.916,7.229 -1.916,6.834L-1.916,-1.8C-1.916,-1.927 -1.853,-1.991 -1.727,-1.991L0.068,-1.991C0.194,-1.991 0.257,-1.927 0.257,-1.8L0.257,6.834C0.257,7.343 0.172,7.804 0,8.217" style="fill:white;fill-rule:nonzero;"/>
                    </g>
                    <g transform="matrix(1,0,0,1,55.4375,9.9965)">
                        <path d="M0,-7.604C-0.273,-7.343 -0.41,-7.016 -0.41,-6.623C-0.41,-6.394 -0.355,-6.204 -0.248,-6.05C-0.14,-5.898 0.01,-5.758 0.2,-5.631C0.391,-5.504 0.623,-5.38 0.896,-5.259C1.169,-5.139 1.471,-5.002 1.801,-4.85C2.31,-4.622 2.751,-4.376 3.126,-4.115C3.501,-3.855 3.813,-3.573 4.06,-3.268C4.308,-2.962 4.492,-2.623 4.613,-2.249C4.733,-1.874 4.794,-1.451 4.794,-0.981C4.794,-0.472 4.711,-0.011 4.546,0.402C4.381,0.815 4.143,1.17 3.832,1.469C3.52,1.767 3.146,1.997 2.707,2.155C2.269,2.314 1.782,2.393 1.249,2.393L0.486,2.393C-0.594,2.393 -1.42,2.095 -1.992,1.498C-2.31,1.167 -2.535,0.877 -2.668,0.63C-2.802,0.382 -2.869,0.208 -2.869,0.106C-2.869,0.055 -2.83,0.01 -2.754,-0.028L-1.096,-0.847C-1.07,-0.86 -1.039,-0.865 -1,-0.865C-0.937,-0.865 -0.886,-0.819 -0.848,-0.723C-0.81,-0.627 -0.74,-0.485 -0.638,-0.294C-0.537,-0.091 -0.378,0.075 -0.162,0.202C0.054,0.329 0.27,0.392 0.486,0.392L1.249,0.392C1.617,0.392 1.938,0.258 2.211,-0.008C2.484,-0.275 2.621,-0.599 2.621,-0.981C2.621,-1.451 2.437,-1.81 2.068,-2.057C1.7,-2.305 1.204,-2.574 0.582,-2.868C0.061,-3.122 -0.397,-3.373 -0.791,-3.621C-1.185,-3.869 -1.515,-4.135 -1.782,-4.421C-2.049,-4.707 -2.249,-5.028 -2.382,-5.383C-2.516,-5.739 -2.583,-6.152 -2.583,-6.623C-2.583,-7.13 -2.497,-7.591 -2.325,-8.004C-2.154,-8.417 -1.916,-8.77 -1.61,-9.062C-1.306,-9.355 -0.934,-9.583 -0.495,-9.749C-0.057,-9.914 0.429,-9.997 0.963,-9.997L1.249,-9.997C2.113,-9.997 2.837,-9.787 3.422,-9.368C3.612,-9.227 3.781,-9.079 3.927,-8.919C4.073,-8.76 4.2,-8.602 4.308,-8.443C4.416,-8.284 4.499,-8.141 4.556,-8.014C4.613,-7.887 4.642,-7.797 4.642,-7.748C4.642,-7.683 4.604,-7.632 4.527,-7.594L2.869,-6.775C2.843,-6.762 2.812,-6.756 2.773,-6.756C2.723,-6.756 2.685,-6.782 2.659,-6.833C2.634,-6.883 2.589,-6.953 2.525,-7.042C2.348,-7.347 2.164,-7.582 1.973,-7.748C1.782,-7.913 1.541,-7.995 1.249,-7.995L0.963,-7.995C0.594,-7.995 0.273,-7.865 0,-7.604" style="fill:white;fill-rule:nonzero;"/>
                    </g>
                    <g transform="matrix(1,0,0,1,71.6201,2.1814)">
                        <path d="M0,8.217C-0.172,8.63 -0.41,8.986 -0.715,9.284C-1.02,9.582 -1.392,9.812 -1.83,9.97C-2.269,10.129 -2.754,10.208 -3.288,10.208L-4.222,10.208C-4.756,10.208 -5.242,10.129 -5.68,9.97C-6.119,9.812 -6.494,9.582 -6.805,9.284C-7.116,8.986 -7.354,8.63 -7.52,8.217C-7.685,7.804 -7.768,7.343 -7.768,6.834L-7.768,-1.8C-7.768,-1.927 -7.704,-1.991 -7.577,-1.991L-5.785,-1.991C-5.658,-1.991 -5.595,-1.927 -5.595,-1.8L-5.595,6.834C-5.595,7.216 -5.46,7.54 -5.192,7.807C-4.924,8.073 -4.598,8.207 -4.215,8.207L-3.276,8.207C-2.893,8.207 -2.571,8.076 -2.309,7.817C-2.047,7.556 -1.916,7.229 -1.916,6.834L-1.916,-1.8C-1.916,-1.927 -1.853,-1.991 -1.727,-1.991L0.068,-1.991C0.194,-1.991 0.257,-1.927 0.257,-1.8L0.257,6.834C0.257,7.343 0.171,7.804 0,8.217" style="fill:white;fill-rule:nonzero;"/>
                    </g>
                    <g transform="matrix(1,0,0,1,85.6392,0.1902)">
                        <path d="M0,12.009L-1.753,12.009C-1.881,12.009 -1.944,11.946 -1.944,11.819L-1.772,4.385L-3.919,10.255C-3.996,10.331 -4.052,10.369 -4.09,10.369L-5.059,10.369C-5.135,10.369 -5.192,10.331 -5.229,10.255L-7.376,4.385L-7.205,11.819C-7.205,11.946 -7.269,12.009 -7.397,12.009L-9.186,12.009C-9.314,12.009 -9.378,11.946 -9.378,11.819L-9.378,0.192C-9.378,0.065 -9.314,0 -9.187,0L-7.548,0C-7.498,0.027 -7.44,0.065 -7.376,0.115L-4.594,7.663L-1.811,0.115C-1.76,0.065 -1.703,0.027 -1.639,0L0,0C0.127,0 0.191,0.065 0.191,0.192L0.191,11.819C0.191,11.946 0.127,12.009 0,12.009" style="fill:white;fill-rule:nonzero;"/>
                    </g>
                    <g transform="matrix(1,0,0,1,92.2549,0.1902)">
                        <path d="M0,12.009L-1.795,12.009C-1.921,12.009 -1.984,11.946 -1.984,11.819L-1.984,0.192C-1.984,0.065 -1.921,0 -1.795,0L0,0C0.126,0 0.189,0.065 0.189,0.192L0.189,11.819C0.189,11.946 0.126,12.009 0,12.009" style="fill:white;fill-rule:nonzero;"/>
                    </g>
                </g>
            </g>
        </g>
    </g>
</svg>
