<?xml version="1.0" encoding="UTF-8" standalone="no"?>
<!DOCTYPE svg PUBLIC "-//W3C//DTD SVG 1.1//EN" "http://www.w3.org/Graphics/SVG/1.1/DTD/svg11.dtd">
<svg width="100%" height="100%" viewBox="0 0 74 74" version="1.1" xmlns="http://www.w3.org/2000/svg" xmlns:xlink="http://www.w3.org/1999/xlink" xml:space="preserve" xmlns:serif="http://www.serif.com/" style="fill-rule:evenodd;clip-rule:evenodd;stroke-linejoin:round;stroke-miterlimit:2;">
    <g transform="matrix(1,0,0,1,-923,-32.9093)">
        <g transform="matrix(0.909091,0,0,0.909091,866.565,-197.091)">
            <g id="logo" transform="matrix(1.14081,0,0,1.14081,130.241,306.957)">
                <path d="M0,-23.241L-2.037,-23.241C-2.244,-23.241 -2.412,-23.409 -2.412,-23.617L-2.412,-29.084C-2.412,-29.292 -2.244,-29.46 -2.037,-29.46L0,-29.46C0.207,-29.46 0.375,-29.292 0.375,-29.084L0.375,-23.617C0.375,-23.409 0.207,-23.241 0,-23.241M0.125,-18.313L-2.319,-18.313C-2.5,-18.313 -2.666,-18.216 -2.755,-18.059L-15.168,3.864C-15.263,4.032 -15.506,4.033 -15.603,3.864L-24.368,-11.452C-22.781,-10.782 -20.95,-10.415 -18.889,-10.415C-11.125,-10.415 -6.622,-15.56 -6.622,-23.28L-6.622,-40.166C2.978,-34.276 9.396,-23.684 9.396,-11.62C9.396,-2.805 5.964,5.218 0.375,11.202L0.375,-18.062C0.375,-18.2 0.264,-18.313 0.125,-18.313M-28.846,21.502L-28.846,-13.275C-28.846,-13.532 -28.505,-13.622 -28.379,-13.398L-16.631,7.302C-16.542,7.458 -16.376,7.555 -16.196,7.555L-14.988,7.555C-14.807,7.555 -14.64,7.458 -14.552,7.3L-2.804,-13.53C-2.678,-13.755 -2.335,-13.665 -2.335,-13.407L-2.335,13.796C-8.188,18.81 -15.781,21.849 -24.073,21.849C-25.694,21.849 -27.286,21.726 -28.846,21.502M-53.131,4.954L-31.281,4.954L-31.281,21.058C-40.623,18.999 -48.507,13.029 -53.131,4.954M-53.642,-27.276C-53.622,-27.271 -53.609,-27.254 -53.587,-27.254L-34.455,-27.254C-34.256,-27.254 -34.136,-27.031 -34.246,-26.865L-54.026,2.962C-54.053,3.003 -54.067,3.052 -54.067,3.101L-54.067,3.206C-56.287,-1.264 -57.542,-6.298 -57.542,-11.62C-57.542,-17.273 -56.127,-22.601 -53.642,-27.276M-31.295,-44.296L-31.295,-29.505L-52.341,-29.505C-47.64,-36.909 -40.118,-42.346 -31.295,-44.296M-31.281,-22.819L-31.281,2.703L-50.476,2.703C-50.676,2.703 -50.795,2.482 -50.685,2.315L-31.295,-26.926L-31.295,-23.28C-31.295,-23.123 -31.281,-22.973 -31.277,-22.819L-31.281,-22.819ZM-9.057,-41.516L-9.057,-23.233C-9.057,-16.893 -12.503,-12.666 -18.889,-12.666C-25.046,-12.666 -28.584,-16.893 -28.584,-23.233L-28.584,-44.776C-27.107,-44.975 -25.604,-45.089 -24.073,-45.089C-18.676,-45.089 -13.576,-43.796 -9.057,-41.516M11.603,-11.62C11.603,-31.292 -4.401,-47.297 -24.073,-47.297C-43.745,-47.297 -59.75,-31.292 -59.75,-11.62C-59.75,8.052 -43.745,24.056 -24.073,24.056C-14.909,24.056 -6.542,20.581 -0.217,14.881L0.375,14.527L0.375,14.325C7.28,7.816 11.603,-1.404 11.603,-11.62" style="fill:white;fill-rule:nonzero;"/>
            </g>
        </g>
    </g>
</svg>
