<?xml version="1.0" encoding="UTF-8" standalone="no"?>
<!DOCTYPE svg PUBLIC "-//W3C//DTD SVG 1.1//EN" "http://www.w3.org/Graphics/SVG/1.1/DTD/svg11.dtd">
<svg width="100%" height="100%" viewBox="0 0 22 38" version="1.1" xmlns="http://www.w3.org/2000/svg" xmlns:xlink="http://www.w3.org/1999/xlink" xml:space="preserve" xmlns:serif="http://www.serif.com/" style="fill-rule:evenodd;clip-rule:evenodd;stroke-linecap:round;stroke-linejoin:round;stroke-miterlimit:1.5;">
    <g transform="matrix(1,0,0,1,-949,-852)">
        <g transform="matrix(1,0,0,1,0,90)">
            <g transform="matrix(0.606061,0,0,1,352.424,-120)">
                <path d="M1019,893C1019,887.481 1011.61,883 1002.5,883C993.393,883 986,887.481 986,893L986,909C986,914.519 993.393,919 1002.5,919C1011.61,919 1019,914.519 1019,909L1019,893Z" style="fill:none;stroke:white;stroke-width:2.42px;"/>
            </g>
        </g>
        <g transform="matrix(1,0,0,1,0,90)">
            <g transform="matrix(0.666667,0,0,0.5,318.333,325)">
                <rect x="961" y="892" width="3" height="14" style="fill:white;"/>
            </g>
        </g>
    </g>
</svg>
