<?xml version="1.0" encoding="UTF-8" standalone="no"?>
<!DOCTYPE svg PUBLIC "-//W3C//DTD SVG 1.1//EN" "http://www.w3.org/Graphics/SVG/1.1/DTD/svg11.dtd">
<svg width="100%" height="100%" viewBox="0 0 12 18" version="1.1" xmlns="http://www.w3.org/2000/svg" xmlns:xlink="http://www.w3.org/1999/xlink" xml:space="preserve" xmlns:serif="http://www.serif.com/" style="fill-rule:evenodd;clip-rule:evenodd;stroke-linejoin:round;stroke-miterlimit:2;">
    <g transform="matrix(1,0,0,1,-916.34,-1558.14)">
        <g transform="matrix(0.812105,0,0,0.812105,215.399,1345.35)">
            <g transform="matrix(1.05546,0,0,1.05546,859.95,262.026)">
                <path d="M10,20C10,20 3,10.87 3,7C3,3.134 6.134,0 10,0C13.866,0 17,3.134 17,7C17,10.87 10,20 10,20ZM10,9C11.105,9 12,8.105 12,7C12,5.895 11.105,5 10,5C8.895,5 8,5.895 8,7C8,8.105 8.895,9 10,9Z" style="fill:rgb(215,0,37);fill-rule:nonzero;"/>
            </g>
        </g>
    </g>
</svg>
