<?xml version="1.0" encoding="UTF-8" standalone="no"?>
<!DOCTYPE svg PUBLIC "-//W3C//DTD SVG 1.1//EN" "http://www.w3.org/Graphics/SVG/1.1/DTD/svg11.dtd">
<svg width="100%" height="100%" viewBox="0 0 22 21" version="1.1" xmlns="http://www.w3.org/2000/svg" xmlns:xlink="http://www.w3.org/1999/xlink" xml:space="preserve" xmlns:serif="http://www.serif.com/" style="fill-rule:evenodd;clip-rule:evenodd;stroke-linejoin:round;stroke-miterlimit:2;">
    <g transform="matrix(1,0,0,1,-1787,-74.5241)">
        <g transform="matrix(1.03156,0,0,1,-60.571,84)">
            <g transform="matrix(0.666464,0,0,0.6875,1791.04,-10.0005)">
                <path d="M25.82,13.151C26.285,13.151 26.66,13.531 26.66,13.992C26.66,14.452 26.285,14.832 25.82,14.832L23.48,14.832L23.48,16.332L25.82,16.332C26.285,16.332 26.66,16.709 26.66,17.172C26.66,17.631 26.285,18.011 25.82,18.011L22.639,18.011C22.179,18.011 21.803,17.631 21.803,17.172L21.803,10.811C21.803,10.351 22.179,9.971 22.643,9.971L25.824,9.971C26.285,9.971 26.66,10.351 26.66,10.811C26.66,11.276 26.285,11.651 25.82,11.651L23.48,11.651L23.48,13.151L25.82,13.151ZM20.68,17.172C20.68,17.532 20.448,17.852 20.104,17.967C20.019,17.995 19.927,18.008 19.839,18.008C19.558,18.008 19.318,17.888 19.159,17.675L15.902,13.252L15.902,17.172C15.902,17.631 15.53,18.011 15.061,18.011C14.6,18.011 14.226,17.631 14.226,17.172L14.226,10.811C14.226,10.451 14.457,10.131 14.799,10.018C14.879,9.987 14.98,9.974 15.058,9.974C15.318,9.974 15.558,10.113 15.718,10.313L19.001,14.753L19.001,10.812C19.001,10.352 19.377,9.972 19.841,9.972C20.301,9.972 20.681,10.352 20.681,10.812L20.68,17.172ZM13.025,17.172C13.025,17.631 12.649,18.011 12.184,18.011C11.724,18.011 11.348,17.631 11.348,17.172L11.348,10.811C11.348,10.351 11.724,9.971 12.188,9.971C12.649,9.971 13.025,10.351 13.025,10.811L13.025,17.172ZM9.737,18.011L6.556,18.011C6.096,18.011 5.716,17.631 5.716,17.172L5.716,10.811C5.716,10.351 6.096,9.971 6.556,9.971C7.02,9.971 7.396,10.351 7.396,10.811L7.396,16.332L9.737,16.332C10.201,16.332 10.576,16.709 10.576,17.172C10.576,17.631 10.2,18.011 9.737,18.011ZM32,13.752C32,6.591 24.82,0.763 16,0.763C7.18,0.763 0,6.591 0,13.752C0,20.167 5.693,25.541 13.38,26.563C13.901,26.672 14.611,26.907 14.791,27.35C14.951,27.751 14.896,28.371 14.842,28.79L14.623,30.15C14.563,30.551 14.303,31.731 16.022,31.01C17.743,30.291 25.243,25.573 28.603,21.71C30.902,19.191 32,16.611 32,13.753L32,13.752Z" style="fill:white;fill-rule:nonzero;"/>
            </g>
        </g>
    </g>
</svg>
