<?xml version="1.0" encoding="UTF-8" standalone="no"?>
<!DOCTYPE svg PUBLIC "-//W3C//DTD SVG 1.1//EN" "http://www.w3.org/Graphics/SVG/1.1/DTD/svg11.dtd">
<svg width="100%" height="100%" viewBox="0 0 18 12" version="1.1" xmlns="http://www.w3.org/2000/svg" xmlns:xlink="http://www.w3.org/1999/xlink" xml:space="preserve" xmlns:serif="http://www.serif.com/" style="fill-rule:evenodd;clip-rule:evenodd;stroke-linejoin:round;stroke-miterlimit:2;">
    <g transform="matrix(1,0,0,1,-715.623,-1547.23)">
        <g transform="matrix(-0.812105,0,0,0.812105,1921.6,1367.35)">
            <g transform="matrix(-0.88655,0,0,0.88655,1488.55,214.407)">
                <path d="M5.315,9.274L13.05,16L5.313,22.728C5.119,22.544 5,22.283 5,21.993L5,10.007C5,9.718 5.121,9.458 5.315,9.274ZM27.687,9.272C27.881,9.456 28,9.717 28,10.007L28,21.993C28,22.282 27.879,22.542 27.685,22.726L19.95,16L27.687,9.272ZM19.202,16.651L26.5,23L6.5,23L13.798,16.651L16.5,19L19.202,16.651ZM6.004,8C4.897,8 4,8.895 4,9.994L4,22.006C4,23.107 4.89,24 6.004,24L26.997,24C28.104,24 29.001,23.105 29.001,22.006L29.001,9.994C29.001,8.893 28.111,8 26.997,8L6.004,8ZM16.5,17.7L6.5,9L26.5,9L16.5,17.7Z" style="fill-rule:nonzero;"/>
            </g>
        </g>
    </g>
</svg>
