<?xml version="1.0" encoding="UTF-8" standalone="no"?>
<!DOCTYPE svg PUBLIC "-//W3C//DTD SVG 1.1//EN" "http://www.w3.org/Graphics/SVG/1.1/DTD/svg11.dtd">
<svg width="100%" height="100%" viewBox="0 0 20 15" version="1.1" xmlns="http://www.w3.org/2000/svg" xmlns:xlink="http://www.w3.org/1999/xlink" xml:space="preserve" xmlns:serif="http://www.serif.com/" style="fill-rule:evenodd;clip-rule:evenodd;stroke-linejoin:round;stroke-miterlimit:2;">
    <g transform="matrix(1,0,0,1,-1588,-1393.97)">
        <g transform="matrix(1,0,0,1,-60.5834,1394.32)">
            <g transform="matrix(0.15625,0,0,0.15625,1479.77,-3.32306)">
                <g transform="matrix(1,0,0,1,1080.37,0)">
                    <path d="M116.73,31.83C116.164,31.071 115.272,30.624 114.325,30.624C113.678,30.624 113.048,30.833 112.53,31.22L64.14,67.34C63.785,67.606 63.295,67.606 62.94,67.34L15.5,31.06C14.977,30.661 14.338,30.445 13.68,30.445C12.034,30.445 10.68,31.799 10.68,33.445C10.68,34.38 11.117,35.263 11.86,35.83L49.16,64.36L12.27,92.16C11.507,92.729 11.056,93.628 11.056,94.58C11.056,96.236 12.419,97.599 14.075,97.599C14.725,97.599 15.359,97.389 15.88,97L54.11,68.14L59.29,72.14C61.764,74.034 65.219,74.058 67.72,72.2L73.16,68.14L111.84,97C112.358,97.387 112.988,97.596 113.635,97.596C115.281,97.596 116.636,96.241 116.636,94.595C116.636,93.649 116.188,92.756 115.43,92.19L78.17,64.35L116.12,36C117.421,35.017 117.695,33.144 116.73,31.83Z" style="fill-rule:nonzero;"/>
                </g>
                <g transform="matrix(1,0,0,1,1080.37,0)">
                    <path d="M113,19L15,19C6.771,19 -0,25.771 0,34L0,94C0,102.229 6.771,109 15,109L113,109C121.229,109 128,102.229 128,94L128,34C128,25.771 121.229,19 113,19ZM122,94C122,98.937 117.937,103 113,103L15,103C10.063,103 6,98.937 6,94L6,34C6,29.063 10.063,25 15,25L113,25C117.937,25 122,29.063 122,34L122,94Z" style="fill-rule:nonzero;"/>
                </g>
            </g>
        </g>
    </g>
</svg>
