<?xml version="1.0" encoding="UTF-8" standalone="no"?>
<!DOCTYPE svg PUBLIC "-//W3C//DTD SVG 1.1//EN" "http://www.w3.org/Graphics/SVG/1.1/DTD/svg11.dtd">
<svg width="100%" height="100%" viewBox="0 0 126 56" version="1.1" xmlns="http://www.w3.org/2000/svg" xmlns:xlink="http://www.w3.org/1999/xlink" xml:space="preserve" xmlns:serif="http://www.serif.com/" style="fill-rule:evenodd;clip-rule:evenodd;stroke-linejoin:round;stroke-miterlimit:2;">
    <g transform="matrix(1,0,0,1,-813.349,-3744.66)">
        <g transform="matrix(0.812105,0,0,0.812105,-443.827,3674.35)">
            <g id="圖層-1" serif:id="圖層 1" transform="matrix(0.359024,0,0,0.359024,1548.05,86.5736)">
                <g transform="matrix(1,0,0,1,112.622,47.1744)">
                    <path d="M0,92.424C0.642,92.783 1.284,93.143 1.926,93.502C3.02,91.453 4.114,89.406 5.535,86.747C-2.052,85.601 0.086,89.724 0,92.424M6.109,71.269L6.109,65.461C0.1,65.001 -1.851,66.621 -0.989,71.269L6.109,71.269ZM-99.868,110.404C-99.343,110.601 -98.818,110.796 -98.292,110.992C-95.739,107.694 -93.185,104.395 -90.759,101.263C-92.419,99.47 -93.752,98.031 -96.113,95.481C-97.504,101.007 -98.686,105.705 -99.868,110.404M-3.304,57.688C-0.112,56.368 4.02,55.444 4.021,54.51C4.027,51.781 2.681,48.879 1.243,46.406C0.678,45.437 -1.538,45.43 -3.304,44.892L-3.304,57.688ZM14.685,84.461C15.219,89.688 12.091,93.105 12.482,97.932C12.759,101.336 8.494,105.11 6.257,108.717C6.804,109.04 7.352,109.364 7.898,109.688C15.91,104.414 17.91,95.388 20.787,86.795C19.091,86.147 17.338,85.476 14.685,84.461M-15.947,16.873C-16.338,13.533 -16.69,10.522 -17.203,6.146C-31.655,15.918 -45.455,25.248 -59.253,34.579C-43.721,30.977 -30.085,22.9 -15.947,16.873M-46.494,84.029C-43.11,88.648 -39.82,93.096 -36.578,97.578C-34.537,100.399 -32.593,100.902 -31.479,97.067C-30.5,93.69 -30.373,90.055 -29.286,86.723C-26.987,79.682 -21.277,76.623 -14.549,74.868C-13.6,74.621 -12.886,73.475 -12.064,72.744C-13.344,72.444 -14.81,71.58 -15.875,71.932C-25.099,74.974 -34.265,78.194 -43.403,81.486C-44.48,81.874 -45.288,83.009 -46.494,84.029M-13.313,48.71C-13.864,48.39 -14.414,48.07 -14.964,47.751C-28.174,56.427 -41.384,65.104 -54.594,73.779C-54.364,74.311 -54.133,74.841 -53.904,75.371C-40.508,71.187 -27.113,67.001 -13.313,62.69L-13.313,48.71ZM-13.863,26.209C-21.391,29.792 -28.23,32.929 -34.958,36.289C-39.854,38.736 -44.502,41.698 -49.458,44.008C-52.316,45.341 -55.564,45.836 -59.657,46.998C-61.029,49.9 -75.248,53.747 -83.144,52.291C-86.142,63 -89.127,73.663 -92.317,85.06C-90.446,84.536 -88.79,84.448 -87.571,83.673C-78.097,77.65 -68.645,71.584 -59.309,65.349C-51.721,60.281 -43.833,55.507 -36.95,49.591C-30.826,44.326 -24.914,39.193 -17.187,36.418C-16.12,36.035 -15.563,33.829 -15.072,32.366C-14.568,30.863 -14.433,29.237 -13.863,26.209M-79.743,-4.643C-84.014,-3.89 -87.919,-3.201 -91.706,-2.533C-95.008,-9.727 -89.662,-10.744 -85.477,-12.129C-82.271,-13.189 -78.821,-13.982 -75.486,-13.964C-74.058,-13.956 -71.422,-11.577 -71.432,-10.291C-71.473,-4.772 -71.905,0.817 -72.935,6.239C-74.088,12.318 -76.151,18.218 -77.607,24.247C-78.808,29.224 -79.7,34.276 -80.73,39.294C-75.662,40.382 -22.435,2.65 -22.137,-1.142C-33.31,3.519 -44.974,8.392 -56.646,13.248C-58.717,14.111 -65.192,10.661 -65.977,7.911C-66.827,4.931 -66.34,2.418 -63.103,0.468C-58.161,-2.509 -53.596,-6.123 -48.929,-9.545C-42.187,-14.49 -35.319,-19.29 -28.839,-24.562C-24.034,-28.471 -19.716,-32.986 -15.272,-37.324C-13.528,-39.027 -12.005,-40.962 -10.428,-42.83C-5.904,-48.192 -4.237,-48.423 3.278,-44.445C1.159,-40.638 0.459,-35.979 -5.543,-35.42C-7.512,-35.238 -9.175,-32.275 -11.069,-30.693C-20.599,-22.737 -30.132,-14.784 -39.733,-6.914C-41.775,-5.24 -44.103,-3.912 -46.299,-2.425C-46.029,-1.847 -45.757,-1.268 -45.487,-0.689C-37.328,-4.384 -29.169,-8.08 -20.923,-11.814C-21.853,-15.215 -20.171,-17.757 -15.535,-17.501C-5.589,-16.952 1.833,-22.743 9.87,-26.913C13.551,-28.823 17.03,-29.796 20.341,-27.17C21.733,-26.065 23.218,-22.923 22.619,-21.895C21.229,-19.51 18.789,-17.566 16.42,-15.967C13.835,-14.22 10.688,-13.311 8.083,-11.587C4.995,-9.542 2.48,-6.549 -0.735,-4.797C-7.572,-1.075 -4.636,4.728 -5.133,10.646C7.581,6.855 16.512,-3.02 28.769,-6.479C30.958,0.053 26.256,2.952 23.13,5.224C15.542,10.739 7.171,15.17 -0.815,20.15C-2.161,20.987 -3.923,22.241 -4.167,23.55C-4.774,26.81 -5.655,30.302 -1.12,32.273C3.413,34.241 7.758,36.987 10.074,41.603C11.545,44.532 12.184,47.882 13.608,52.333C21.541,48.252 28.994,44.167 36.686,40.597C39.297,39.384 42.679,38.672 45.387,39.249C47.026,39.598 49.549,43.579 49.031,44.66C47.948,46.917 45.374,48.949 42.947,49.979C35.33,53.207 27.409,55.721 19.776,58.918C14.182,61.26 13.798,62.848 15.081,70.813C17.755,71.426 20.6,71.601 23.011,72.715C32.221,76.974 35.824,85.319 31.919,94.487C29.239,100.779 25.615,106.693 22.125,112.606C20.385,115.555 12.831,116.975 9.674,115.384C3.96,112.506 3.959,112.506 2.621,119.273L-9.793,119.273L-9.793,127.145C-3.096,128.916 1.764,124.817 7.162,122.716C8.479,122.203 9.957,122.102 11.36,121.811C11.103,123.232 11.287,124.99 10.507,126.013C7.771,129.599 5.235,133.702 1.643,136.195C-5.059,140.847 -12.352,140.099 -19.126,135.671C-20.222,134.953 -21.017,133.545 -21.587,132.29C-25.496,123.7 -23.994,116.441 -16.915,108.992C-16.364,108.412 -15.938,107.715 -15.27,106.828C-17.367,106.237 -19.133,105.74 -20.967,105.225C-23.722,112.494 -35.82,116.711 -42.652,109.04C-48.395,102.594 -53.751,95.805 -59.826,88.511C-62.454,89.32 -66.46,90.495 -70.429,91.785C-74.844,93.222 -79.261,94.666 -83.6,96.311C-85.011,96.845 -86.887,97.75 -87.343,98.945C-90.348,106.824 -92.812,114.913 -95.887,122.764C-97.723,127.452 -100.015,132.055 -102.821,136.211C-103.661,137.453 -107.076,137.67 -109.035,137.201C-110.412,136.872 -112.075,134.705 -112.315,133.157C-113.575,125.03 -110.684,117.467 -108.538,109.821C-107.069,104.594 -105.777,99.312 -104.168,94.128C-102.562,88.953 -100.686,83.86 -98.875,78.75C-97.402,74.594 -96.179,70.305 -94.254,66.363C-91.782,61.3 -93.387,55.222 -90.601,50.671C-88.537,47.301 -90.288,44.133 -89.236,41.277C-86.236,33.123 -86.146,24.46 -84.213,16.138C-83.011,10.966 -82.137,5.718 -81.077,0.511C-80.798,-0.861 -80.38,-2.204 -79.743,-4.643"/>
                </g>
                <g transform="matrix(1,0,0,1,169.158,38.8389)">
                    <path d="M0,127.319C-6.408,114.429 2.823,105.048 6.858,94.781C9.281,88.617 13.702,83.241 17.16,77.473C17.616,76.712 17.6,75.682 17.967,74.85C18.876,72.788 19.881,70.767 21.913,69.246C21.412,68.112 20.911,66.979 20.179,65.325C16.876,66.759 13.646,69.074 10.226,69.398C6.581,69.745 2.598,68.616 -0.888,67.244C-1.911,66.84 -2.54,63.148 -1.968,61.421C-0.334,56.486 4.65,56.392 8.743,55.24C15.212,53.418 21.742,51.811 28.197,49.941C29.154,49.665 30.241,48.587 30.584,47.633C34.529,36.634 38.354,25.593 42.182,14.553C43.387,11.081 44.447,7.556 45.688,4.098C46.909,0.695 51.538,-0.312 54.281,2.148C58.896,6.288 58.977,9.018 56.039,15.87C52.274,24.649 48.998,33.637 45.12,43.534C56.508,39.392 66.978,35.586 77.447,31.777C77.76,32.17 78.073,32.561 78.386,32.954C76.859,34.559 75.505,36.395 73.765,37.723C69.706,40.823 65.625,43.961 61.236,46.544C57.603,48.681 53.546,50.12 49.622,51.734C46.403,53.056 42.88,53.8 39.926,55.538C38.182,56.563 37.048,58.901 36.042,60.855C32.192,68.325 28.514,75.881 24.759,83.399C20.152,92.621 15.412,101.778 11.003,111.092C9.871,113.486 9.373,116.347 9.264,119.022C9,125.452 6.787,127.631 0,127.319"/>
                </g>
                <g transform="matrix(1,0,0,1,428.914,142.382)">
                    <path d="M0,-49.967C-2.324,-42.686 -8.299,-41.781 -13.664,-40.136C-20.645,-37.995 -27.691,-36.069 -34.73,-34.124C-41.499,-32.254 -48.272,-30.387 -55.087,-28.695C-59.49,-27.603 -63.618,-24.515 -68.526,-26.6C-70.328,-21.479 -75.607,-22.753 -79.194,-21.078C-86.652,-17.597 -94.613,-15.209 -102.188,-11.952C-108.294,-9.326 -113.997,-5.747 -120.139,-3.224C-124.828,-1.296 -129.922,0.719 -134.836,0.72C-139.702,0.72 -143.591,-3.808 -143.272,-7.238C-142.846,-11.854 -140.181,-14.846 -134.279,-15.255C-125.901,-15.836 -118.833,-19.573 -111.432,-23.059C-104.562,-26.295 -96.886,-27.803 -89.606,-30.198C-83.726,-32.134 -77.967,-34.456 -72.047,-36.254C-63.645,-38.805 -55.197,-41.252 -46.671,-43.34C-36.721,-45.776 -26.727,-48.156 -16.629,-49.813C-11.3,-50.687 -5.711,-49.967 0,-49.967"/>
                </g>
                <g transform="matrix(1,0,0,1,348.258,177.041)">
                    <path d="M0,-28.412C10.391,-25.183 20.932,-22.13 31.315,-18.611C40.095,-15.638 48.748,-12.261 57.357,-8.81C65.051,-5.729 72.715,-2.526 80.143,1.131C81.897,1.995 84.039,6.208 83.63,6.642C81.563,8.831 78.149,12.197 76.243,11.636C70.389,9.912 65.063,6.457 59.409,3.952C57.542,3.125 55.217,3.396 53.247,2.733C44,-0.382 34.944,-4.158 25.55,-6.707C16.589,-9.137 7.294,-10.334 -1.85,-12.099C-3.104,-12.34 -4.329,-12.728 -5.617,-13.061C-8.841,-10.053 -12.259,-6.803 -15.745,-3.628C-19.07,-0.6 -22.295,-2.723 -24.278,-4.958C-26.324,-7.262 -26.856,-9.98 -24.362,-13.704C-20.082,-20.097 -15.389,-26.53 -14.565,-34.885C-14.138,-39.218 -9.406,-40.609 -5.844,-39.863C-3.581,-39.39 -1.674,-36.184 -0.116,-33.862C0.572,-32.836 0,-30.963 0,-28.412"/>
                </g>
                <g transform="matrix(1,0,0,1,222.706,179.281)">
                    <path d="M0,-73.457C10.066,-74.639 10.729,-74.199 15.09,-66.14C22.227,-52.946 29.088,-39.578 36.855,-26.761C41.135,-19.701 46.259,-12.856 54.145,-9.029C55.008,-8.61 56.013,-8.419 56.78,-7.877C58.344,-6.773 59.788,-5.504 61.282,-4.303C59.714,-2.746 58.395,-0.463 56.514,0.181C54.301,0.937 51.03,1.182 49.222,0.048C44.203,-3.098 38.68,-6.298 35.212,-10.881C27.588,-20.96 20.935,-31.796 14.219,-42.531C9.555,-49.985 5.269,-57.695 1.211,-65.497C0.092,-67.647 0.398,-70.538 0,-73.457"/>
                </g>
                <g transform="matrix(1,0,0,1,363.467,65.4721)">
                    <path d="M0,11.555C-1.787,14.073 -3.264,16.901 -5.418,19.046C-11.69,25.298 -16.127,34.848 -27.186,33.402C-32.989,32.643 -38.236,30.828 -41.817,24.753C-45.149,19.1 -48.958,13.903 -50.361,7.324C-50.982,4.409 -52.563,1.681 -53.037,-1.241C-53.846,-6.231 -53.879,-11.349 -54.708,-16.335C-55.365,-20.279 -52.943,-21.624 -50.162,-22.477C-47.498,-23.293 -44.983,-22.906 -44.047,-19.47C-43.355,-16.93 -42.021,-14.541 -41.53,-11.976C-39.461,-1.174 -38.839,10.06 -31.456,19.148C-29.851,21.126 -21.642,23.085 -19.127,21.687C-12.927,18.238 -6.828,14.609 -0.687,11.051C-0.458,11.219 -0.229,11.387 0,11.555"/>
                </g>
                <g transform="matrix(1,0,0,1,388.152,60.1403)">
                    <path d="M0,-39.934C-2.993,-44.347 -6.018,-48.136 -8.266,-52.341C-9.868,-55.341 -7.021,-57.428 -4.758,-57.993C-2.31,-58.605 1.375,-58.742 3.003,-57.333C8.233,-52.808 11.767,-46.926 11.21,-39.61C10.982,-36.615 10.169,-33.538 8.987,-30.767C6.294,-24.447 2.83,-18.437 0.388,-12.031C-1.925,-5.966 -3.37,0.435 -5.128,6.708C-6.031,9.93 -6.785,13.195 -7.748,17C-11.68,18.808 -13.071,15.066 -13.081,12.388C-13.101,7.056 -12.478,1.591 -11.188,-3.587C-8.422,-14.705 -5.117,-25.693 -1.888,-36.691C-1.415,-38.3 -0.154,-39.678 0,-39.934"/>
                </g>
            </g>
        </g>
    </g>
</svg>
