<?xml version="1.0" encoding="UTF-8" standalone="no"?>
<!DOCTYPE svg PUBLIC "-//W3C//DTD SVG 1.1//EN" "http://www.w3.org/Graphics/SVG/1.1/DTD/svg11.dtd">
<svg width="100%" height="100%" viewBox="0 0 120 65" version="1.1" xmlns="http://www.w3.org/2000/svg" xmlns:xlink="http://www.w3.org/1999/xlink" xml:space="preserve" xmlns:serif="http://www.serif.com/" style="fill-rule:evenodd;clip-rule:evenodd;stroke-linejoin:round;stroke-miterlimit:2;">
    <g transform="matrix(1,0,0,1,-1438.19,-4577.32)">
        <g transform="matrix(0.812105,0,0,0.812105,187.173,4571.35)">
            <g id="圖層-1" serif:id="圖層 1" transform="matrix(0.33812,0,0,0.33812,1526.92,-8.65661)">
                <g transform="matrix(0.814954,0,0,0.814954,157.881,160.172)">
                    <path d="M0,-1.361C1.178,-4.399 1.975,-6.456 2.771,-8.512C2.399,-8.742 2.027,-8.972 1.656,-9.202C-0.27,-8.287 -2.195,-7.371 -4.465,-6.292C-2.936,-4.602 -1.949,-3.512 0,-1.361M-6.666,-4.264C-15.985,-1.263 -19.118,13.141 -13.037,23.728C-4.335,16.91 -1.946,11.217 -6.666,-4.264M-18.154,32.624C-23.744,25.413 -25.389,17.391 -24.487,8.579C-27.961,8.889 -30.868,9.149 -33.758,9.407C-32.483,21.49 -31.244,33.238 -29.9,45.971C-25.783,41.292 -22.064,37.067 -18.154,32.624M-42.156,29.973C-48.161,31.932 -53.303,33.52 -58.367,35.328C-59.523,35.743 -61.201,36.841 -61.289,37.755C-61.89,43.998 -62.129,50.276 -62.485,56.541C-61.984,56.678 -61.483,56.815 -60.983,56.952C-55.258,52.714 -49.535,48.477 -43.811,44.239C-44.351,43.996 -44.891,43.753 -45.432,43.509C-44.388,39.199 -43.345,34.889 -42.156,29.973M-10.845,85.401C-6.979,70.494 -3.114,55.589 0.687,40.932C-3.958,40.159 -7.926,39.393 -11.928,38.91C-12.83,38.801 -14.135,39.424 -14.771,40.139C-19.387,45.324 -23.987,50.534 -28.323,55.95C-29.233,57.086 -29.4,59.145 -29.276,60.727C-28.538,70.104 -27.752,79.481 -26.696,88.826C-26.132,93.811 -28.942,96.916 -33.895,96.123C-40.387,95.082 -44.869,87.946 -41.998,83.217C-36.23,85.697 -35.69,85.343 -35.679,78.911C-35.672,75.081 -35.63,71.244 -35.81,67.42C-36.121,60.828 -36.592,54.244 -37.081,46.271C-40.734,49.57 -43.599,52.305 -46.623,54.851C-50.731,58.309 -55.118,61.451 -59.06,65.08C-60.629,66.527 -62.265,68.916 -62.262,70.874C-62.248,78.67 -61.693,86.473 -61.146,94.259C-60.895,97.845 -61.509,100.598 -65.639,101.104C-68.741,101.485 -70.658,100.661 -70.61,96.878C-70.426,82.387 -70.486,67.892 -70.351,53.401C-70.336,51.791 -69.452,50.204 -69.32,48.578C-68.963,44.172 -66.751,39.555 -71.322,35.676C-72.205,34.927 -71.808,32.028 -71.252,30.372C-70.315,27.581 -68.239,25.117 -67.588,22.295C-64.54,9.082 -62.127,-4.282 -58.888,-17.446C-55.386,-31.68 -51.232,-45.754 -47.334,-59.889C-46.807,-61.801 -46.116,-63.667 -45.502,-65.555C-46.309,-66.085 -47.115,-66.614 -47.922,-67.144C-51.963,-62.625 -55.672,-57.746 -60.107,-53.653C-72.091,-42.591 -84.276,-31.742 -96.6,-21.057C-102.309,-16.108 -108.168,-11.142 -114.621,-7.297C-119.833,-4.19 -125.888,-2.007 -131.851,-0.799C-137.075,0.258 -139.63,-4.284 -136.76,-8.943C-128.766,-21.923 -120.675,-34.851 -112.314,-47.596C-101.437,-64.178 -90.252,-80.558 -79.233,-97.048C-78.517,-98.12 -78.33,-99.631 -77.458,-100.494C-76.415,-101.527 -74.899,-102.084 -73.587,-102.846C-73.358,-101.272 -72.428,-99.341 -73.016,-98.182C-76.053,-92.203 -79.201,-86.243 -82.824,-80.607C-91.289,-67.439 -100.116,-54.507 -108.663,-41.392C-115.119,-31.486 -121.374,-21.448 -127.693,-11.454C-127.928,-11.081 -127.904,-10.543 -128.331,-8.519C-124.136,-10.704 -120.776,-12.272 -117.594,-14.143C-99.823,-24.594 -85.293,-38.99 -70.49,-53.042C-65.491,-57.787 -60.46,-62.512 -55.702,-67.493C-54.55,-68.7 -54.402,-70.881 -53.841,-72.627C-53.748,-72.915 -54.06,-73.388 -53.92,-73.597C-52.743,-75.349 -51.59,-78.457 -50.271,-78.537C-45.296,-78.837 -40.944,-84.895 -35.588,-80.347C-34.721,-79.611 -33.949,-77.87 -34.203,-76.862C-35.466,-71.842 -36.988,-66.88 -38.608,-61.96C-40.812,-55.271 -43.374,-48.697 -45.441,-41.968C-48.122,-33.25 -50.814,-24.507 -52.864,-15.629C-55.19,-5.555 -56.777,4.688 -58.761,14.84C-59.41,18.163 -60.298,21.439 -61.334,25.827C-58.192,25.136 -56.18,24.741 -54.192,24.245C-51.369,23.541 -48.587,22.645 -45.743,22.047C-41.757,21.211 -39.857,18.412 -40.787,13.999C-42.271,6.952 -43.846,-0.077 -45.509,-7.084C-46.214,-10.056 -47.498,-12.906 -48.036,-15.899C-48.476,-18.347 -49.103,-21.529 -47.951,-23.253C-47.057,-24.591 -43.548,-24.184 -40.985,-24.587C-38.707,-15.526 -36.614,-7.207 -34.473,1.308C-31.528,0.02 -27.448,-1.055 -24.319,-3.4C-22.428,-4.819 -21.616,-8.117 -21.004,-10.729C-18.125,-23.03 -15.427,-35.375 -12.8,-47.73C-12.219,-50.466 -12.518,-53.403 -11.826,-56.096C-10.984,-59.369 -8.235,-61.524 -5.113,-60.356C-2.985,-59.56 -1.565,-56.698 -0.029,-54.613C0.326,-54.132 0.154,-52.818 -0.271,-52.272C-7.363,-43.146 -7.795,-31.742 -10.925,-21.272C-11.852,-18.175 -12.375,-14.96 -13.179,-11.368C-6.562,-13.919 -0.818,-16.525 5.18,-18.238C7.383,-18.868 10.863,-18.166 12.562,-16.69C15.068,-14.513 13.756,-11.624 11.484,-9.36C9.792,-7.673 8.476,-5.59 6.709,-3.996C3.415,-1.022 1.804,1.466 4.624,6.27C5.913,8.466 4.002,13.127 2.54,16.192C0.942,19.538 -2.044,22.194 -3.974,25.421C-4.993,27.125 -5.053,29.404 -5.546,31.423C-2.662,31.037 1.332,31.681 2.86,30.035C5.467,27.229 8.084,26.837 11.256,27.108C14.752,27.406 15.756,29.837 14.553,33.082C10.354,44.406 6.517,55.865 2.289,67.178C0.175,72.832 -2.289,78.384 -5.037,83.755C-5.743,85.134 -8.135,85.651 -9.751,86.564C-10.117,86.176 -10.481,85.788 -10.845,85.401" style="fill:white;"/>
                </g>
                <g transform="matrix(0.814954,0,0,0.814954,411.298,237.099)">
                    <path d="M0,-124.22C-0.967,-116.67 -0.128,-115.936 6.943,-118.506C8.711,-119.148 10.352,-120.135 12.052,-120.963C12.087,-121.338 12.123,-121.713 12.158,-122.088C8.23,-122.777 4.301,-123.466 0,-124.22M52.706,-22.742C51.954,-21.511 51.221,-20.544 50.73,-19.467C48.831,-15.292 47.651,-10.609 44.996,-7.002C41.609,-2.402 42.796,0.974 45.854,4.672C46.478,5.425 46.889,6.349 47.461,7.15C49.777,10.394 52.118,13.621 55.1,17.754C54.255,3.458 53.497,-9.362 52.706,-22.742M36.106,7.127C32.317,9.075 28.947,10.806 25.579,12.537C25.026,11.987 24.475,11.436 23.922,10.885C24.833,9.15 25.492,7.21 26.701,5.717C30.516,1.013 30.969,-2.219 28.074,-7.803C17.226,-28.738 8.953,-50.657 2.855,-73.42C0.703,-81.458 -1.479,-89.491 -3.767,-97.491C-5.297,-102.852 -9.636,-100.568 -12.417,-99.776C-22.564,-96.884 -32.481,-93.178 -42.62,-90.245C-44.601,-89.672 -48.522,-90.497 -49.221,-91.866C-50.879,-95.116 -49.399,-98.749 -45.838,-100.034C-33.715,-104.409 -21.452,-108.399 -8.3,-112.855C-9.543,-117.568 -10.378,-122.533 -12.187,-127.116C-14.343,-132.581 -17.565,-137.618 -19.886,-143.031C-21.48,-146.75 -22.488,-150.752 -23.465,-154.7C-24.606,-159.319 -25.571,-163.994 -26.329,-168.691C-26.688,-170.921 -26.391,-173.258 -26.391,-175.441C-17.501,-177.86 -14.428,-175.97 -14.827,-167.502C-15.264,-158.232 -12.577,-150.158 -7.708,-142.538C-5.451,-139.007 -3.94,-133.041 -1.021,-132.28C6.135,-130.412 13.924,-130.465 21.437,-130.644C26.785,-130.771 32.079,-132.828 37.44,-133.07C39.715,-133.171 43.249,-131.39 44.188,-129.474C45.984,-125.806 43.497,-122.769 40.009,-121.159C35.413,-119.038 30.653,-117.279 26.004,-115.271C18.406,-111.991 10.841,-108.637 3.044,-105.218C11.619,-72.86 19.905,-41.313 36.28,-11.066C39.197,-17.296 42.03,-22.36 43.989,-27.741C47.895,-38.469 51.264,-49.391 54.977,-60.19C55.961,-63.052 56.915,-66.128 58.72,-68.456C61.471,-72.004 66.585,-70.897 67.28,-66.541C67.754,-63.576 66.899,-60.194 65.912,-57.241C63.28,-49.366 60.296,-41.607 57.377,-33.829C53.269,-22.879 55.49,-11.655 57.792,-1.116C60.627,11.865 66.03,24.298 70.585,36.873C71.246,38.698 73.092,40.492 74.854,41.437C78.522,43.407 78.632,46.869 77.539,49.502C76.825,51.222 73.51,52.186 71.179,52.83C68.239,53.64 66.182,52.692 64.491,49.487C61.524,43.864 57.703,38.683 54.123,33.398C48.143,24.572 42.067,15.809 36.106,7.127" style="fill:white;"/>
                </g>
                <g transform="matrix(0.814954,0,0,0.814954,264.837,203.52)">
                    <path d="M0,-42.329C12.361,-49.017 23.525,-54.982 34.588,-61.127C36.247,-62.048 37.312,-63.986 38.894,-65.117C39.841,-65.794 41.44,-66.322 42.408,-65.975C43.243,-65.676 43.908,-64.1 44.118,-62.991C45.23,-57.107 40.794,-54.305 37.017,-51.635C27.21,-44.702 16.494,-39.54 4.99,-35.892C3.31,-35.359 1.298,-31.954 1.499,-30.101C2.271,-22.975 3.88,-15.94 5.247,-8.485C18.181,-4.68 31.177,0.502 42.596,9.406C48.747,14.203 55.75,17.971 62.603,21.782C67.171,24.323 68.535,26.771 66.327,30.735C64.852,33.389 59.03,34.409 56.201,32.338C47.074,25.657 38.299,18.443 28.817,12.317C22.286,8.095 14.901,5.122 7.709,2.029C4.903,0.822 3.169,2.357 3.061,5.796C2.639,19.199 -2.847,30.86 -11.253,40.789C-14.838,45.023 -19.613,49.487 -26.007,49.959C-26.458,49.559 -26.908,49.158 -27.358,48.758C-26.369,47.401 -25.587,45.809 -24.355,44.729C-17.675,38.862 -12.911,31.719 -9.547,23.538C-2.672,6.818 -2.913,-10.374 -6.015,-27.764C-6.211,-28.863 -6.897,-29.875 -7.542,-31.355C-20.224,-25.89 -32.722,-20.393 -45.328,-15.157C-48.199,-13.963 -51.413,-11.489 -54.56,-14.497C-55.681,-15.568 -56.793,-17.432 -56.662,-18.816C-56.524,-20.267 -55.079,-22.563 -53.879,-22.794C-39.189,-25.614 -26.478,-33.502 -12.661,-38.508C-9.941,-39.493 -8.183,-40.665 -8.838,-43.776C-11.439,-56.141 -14.078,-68.499 -16.705,-80.857C-16.774,-81.183 -16.82,-81.535 -16.981,-81.814C-18.469,-84.402 -20.633,-87.15 -17.519,-89.763C-16.066,-90.98 -12.66,-92.288 -12.067,-91.68C-9.904,-89.454 -7.627,-86.621 -7.054,-83.692C-4.5,-70.632 -2.521,-57.458 0,-42.329" style="fill:white;"/>
                </g>
                <g transform="matrix(0.814954,0,0,0.814954,369.802,170.237)">
                    <path d="M0,36.98C-0.823,36.879 -1.648,36.778 -2.473,36.676C-3.523,43.619 -4.575,50.56 -5.627,57.502C-4.942,57.604 -4.259,57.707 -3.574,57.808C-2.383,50.866 -1.19,43.922 0,36.98M8.711,46.76C14.306,45.618 19.367,43.97 20.705,38.811C22.089,33.476 22.421,27.65 21.998,22.132C21.625,17.279 19.573,12.554 18.263,7.773C17.507,7.653 16.75,7.532 15.994,7.412C13.031,12.236 8.245,16.805 7.528,21.945C6.434,29.794 8.147,38.037 8.711,46.76M3.995,9.34C8.189,5 11.256,1.309 14.854,-1.756C18.648,-4.989 23.378,-4.299 25.614,0.207C28.042,5.097 30.177,10.466 30.828,15.823C31.689,22.899 31.423,30.201 30.838,37.339C30.175,45.427 22.875,51.894 14.9,52.763C12.157,53.062 9.484,54.009 7.215,54.555C4.551,60.51 2.243,66.421 -0.77,71.95C-1.694,73.65 -4.539,75.134 -6.516,75.148C-7.877,75.158 -10.323,72.547 -10.447,70.965C-11.076,62.944 -11.427,54.869 -11.254,46.825C-11.065,38.022 -8.146,29.993 -3.901,22.179C-2.37,19.359 -3.06,14.672 -4.088,11.243C-7.589,-0.438 -11.619,-11.962 -15.619,-23.487C-16.524,-26.096 -18.486,-28.355 -19.275,-30.981C-19.909,-33.089 -19.503,-35.51 -19.559,-37.792C-17.201,-37.544 -13.721,-38.178 -12.701,-36.88C-9.852,-33.251 -7.614,-28.988 -5.885,-24.674C-3.259,-18.126 -1.079,-11.381 0.931,-4.613C2.264,-0.124 2.968,4.55 3.995,9.34" style="fill:white;"/>
                </g>
                <g transform="matrix(0.814954,0,0,0.814954,471.897,46.8606)">
                    <path d="M0,51.074C-3.165,42.708 -6.062,34.01 -9.771,25.673C-11.733,21.26 -13.764,16.248 -20.227,15.687C-20.951,15.623 -21.948,9.494 -21.341,6.476C-20.919,4.375 -20.196,1.26 -16.231,0.715C-11.026,0 -7.687,2.516 -5.394,6.013C0.972,15.718 4.575,26.61 5.958,38.11C6.573,43.232 7.477,48.95 0,51.074" style="fill:white;"/>
                </g>
                <g transform="matrix(0.814954,0,0,0.814954,85.554,245.564)">
                    <path d="M0,44.579C-3.227,45.296 -5.453,46.581 -6.704,45.946C-19.46,39.482 -32.021,32.611 -42.173,22.267C-46.21,18.154 -49.734,13.542 -53.686,9.342C-56.582,6.263 -56.562,3.332 -53.473,0.77C-50.13,-2.002 -46.179,-0.214 -44.844,2.498C-36.48,19.504 -21.096,28.454 -5.937,37.831C-4,39.029 -2.767,41.366 0,44.579" style="fill:white;"/>
                </g>
                <g transform="matrix(0.814954,0,0,0.814954,151.631,247.763)">
                    <path d="M0,13.61C-2.432,19.274 -9.807,21.313 -15.262,16.652C-18.986,13.471 -22.699,10.165 -25.797,6.405C-27.542,4.287 -28.534,1.201 -28.905,-1.577C-29.162,-3.505 -27.785,-5.653 -27.136,-7.703C-24.943,-6.667 -22.352,-6.064 -20.646,-4.496C-17.802,-1.885 -15.844,1.711 -12.934,4.221C-8.985,7.627 -4.492,10.4 0,13.61" style="fill:white;"/>
                </g>
                <g transform="matrix(0.814954,0,0,0.814954,117.344,249.11)">
                    <path d="M0,25.692C-2.01,24.618 -3.627,24.105 -4.785,23.076C-9.917,18.505 -14.936,13.804 -19.961,9.115C-22.106,7.113 -24.197,4.462 -21.301,2.16C-19.574,0.789 -15.456,0 -14.038,1.08C-7.354,6.175 -1.16,11.931 4.99,17.685C5.679,18.33 5.516,20.849 4.808,21.802C3.643,23.373 1.711,24.373 0,25.692" style="fill:white;"/>
                </g>
                <g transform="matrix(0.814954,0,0,0.814954,175.253,256.263)">
                    <path d="M0,-17.639C6.534,-15.255 12.267,-13.72 17.359,-10.991C19.043,-10.087 20.498,-5.003 19.545,-3.774C17.962,-1.729 14.162,0 11.638,-0.386C7.104,-1.079 2.469,-2.873 -1.423,-5.321C-3.602,-6.693 -5.368,-10.285 -5.413,-12.907C-5.44,-14.496 -1.82,-16.148 0,-17.639" style="fill:white;"/>
                </g>
            </g>
        </g>
    </g>
</svg>
